<svg width="40" height="40" viewBox="0 0 40 40" fill="none" xmlns="http://www.w3.org/2000/svg">
<path fill-rule="evenodd" clip-rule="evenodd" d="M20 10.4167C17.0085 10.4167 14.5833 12.8418 14.5833 15.8333C14.5833 18.8249 17.0085 21.25 20 21.25C22.9915 21.25 25.4167 18.8249 25.4167 15.8333C25.4167 12.8418 22.9915 10.4167 20 10.4167ZM17.0833 15.8333C17.0833 14.2225 18.3892 12.9167 20 12.9167C21.6108 12.9167 22.9167 14.2225 22.9167 15.8333C22.9167 17.4442 21.6108 18.75 20 18.75C18.3892 18.75 17.0833 17.4442 17.0833 15.8333Z" fill="#B5B2B2"/>
<path fill-rule="evenodd" clip-rule="evenodd" d="M20 3.75C13.3266 3.75 7.91667 9.15989 7.91667 15.8333C7.91667 18.2802 8.64397 20.5572 9.89419 22.46L5.58413 29.9252C5.33902 30.3498 5.36469 30.8784 5.64979 31.2772C5.93488 31.676 6.42676 31.8713 6.90777 31.7767L11.2642 30.9203L12.7008 35.1213C12.8594 35.5852 13.2745 35.9135 13.7624 35.961C14.2503 36.0085 14.721 35.7664 14.9661 35.3419L19.2657 27.8947C19.5086 27.9093 19.7534 27.9167 20 27.9167C20.2466 27.9167 20.4914 27.9093 20.7343 27.8947L25.0339 35.3419C25.2793 35.7669 25.7506 36.009 26.2389 35.9609C26.7273 35.9128 27.1423 35.5834 27.3001 35.1188L28.7294 30.9092L33.0896 31.7762C33.5709 31.8719 34.0636 31.6772 34.3494 31.2783C34.6352 30.8794 34.6612 30.3502 34.4159 29.9252L30.1058 22.46C31.356 20.5572 32.0833 18.2802 32.0833 15.8333C32.0833 9.15989 26.6734 3.75 20 3.75ZM10.4167 15.8333C10.4167 10.5406 14.7073 6.25 20 6.25C25.2927 6.25 29.5833 10.5406 29.5833 15.8333C29.5833 21.1261 25.2927 25.4167 20 25.4167C14.7073 25.4167 10.4167 21.1261 10.4167 15.8333ZM16.6396 27.4433C14.718 26.888 12.9933 25.8686 11.5948 24.5144L9.12449 28.7931L11.8528 28.2568C12.4662 28.1362 13.0744 28.4873 13.2766 29.0789L14.1763 31.7098L16.6396 27.4433ZM25.8197 31.7029L23.3604 27.4433C25.282 26.888 27.0067 25.8686 28.4052 24.5144L30.8715 28.7862L28.1419 28.2435C27.5267 28.1212 26.9162 28.4737 26.7145 29.0676L25.8197 31.7029Z" fill="#B5B2B2"/>
</svg>
