<svg width="40" height="40" viewBox="0 0 40 40" fill="none" xmlns="http://www.w3.org/2000/svg">
<path d="M20 2.85484C10.5323 2.85484 2.85484 10.5323 2.85484 20C2.85484 29.4677 10.5323 37.1452 20 37.1452C29.4677 37.1452 37.1452 29.4677 37.1452 20C37.1452 10.5323 29.4677 2.85484 20 2.85484ZM12.1452 13.5726C12.1452 9.24194 15.6694 5.71774 20 5.71774C24.3306 5.71774 27.8548 9.24194 27.8548 13.5726V15.7177C27.8548 16.121 27.5403 16.4355 27.1371 16.4355H25.7097C25.3064 16.4355 24.9919 16.121 24.9919 15.7177V13.5726C24.9919 6.95161 14.9919 6.95161 14.9919 13.5726V15.7177C14.9919 16.121 14.6774 16.4355 14.2742 16.4355H12.8468C12.4435 16.4355 12.129 16.121 12.129 15.7177V13.5726H12.1452ZM31.4274 30C31.4274 30.7823 30.7823 31.4274 30 31.4274H10C9.21774 31.4274 8.57258 30.7823 8.57258 30V18.5726C8.57258 17.7903 9.21774 17.1452 10 17.1452H30C30.7823 17.1452 31.4274 17.7903 31.4274 18.5726V30ZM11.4274 18.9274V29.6452C11.4274 29.8468 11.2742 30 11.0726 30H10.3548C10.1532 30 10 29.8468 10 29.6452V18.9274C10 18.7258 10.1532 18.5726 10.3548 18.5726H11.0726C11.2742 18.5726 11.4274 18.7258 11.4274 18.9274ZM22.8548 22.8548C22.8548 23.9032 22.2742 24.8226 21.4274 25.3064V27.8548C21.4274 28.2581 21.1129 28.5726 20.7097 28.5726H19.2823C18.879 28.5726 18.5645 28.2581 18.5645 27.8548V25.3064C17.7177 24.8145 17.1371 23.9032 17.1371 22.8548C17.1371 21.2661 18.4113 20 19.9919 20C21.5726 20 22.8548 21.2742 22.8548 22.8548ZM20 0C8.95161 0 0 8.95161 0 20C0 31.0484 8.95161 40 20 40C31.0484 40 40 31.0484 40 20C40 8.95161 31.0484 0 20 0ZM20 38.5726C9.75806 38.5726 1.42742 30.2419 1.42742 20C1.42742 9.75806 9.75806 1.42742 20 1.42742C30.2419 1.42742 38.5726 9.75806 38.5726 20C38.5726 30.2419 30.2419 38.5726 20 38.5726Z" fill="#B5B2B2"/>
</svg>
